<svg id="visual" viewBox="0 0 960 540" width="960" height="540" xmlns="http://www.w3.org/2000/svg" xmlns:xlink="http://www.w3.org/1999/xlink" version="1.1"><rect width="960" height="540" fill="#5a9fe5"></rect><g><g transform="translate(384 363)"><path d="M48.3 -49.1C60.7 -35.8 67.8 -17.9 67.7 -0.1C67.6 17.7 60.3 35.4 47.9 48.4C35.4 61.5 17.7 69.9 0 69.9C-17.7 69.9 -35.5 61.6 -48.7 48.5C-61.8 35.5 -70.4 17.7 -70.9 -0.4C-71.3 -18.6 -63.6 -37.2 -50.4 -50.6C-37.2 -63.9 -18.6 -72 -0.4 -71.6C17.9 -71.2 35.8 -62.5 48.3 -49.1Z" stroke="#60a9f1" fill="none" stroke-width="20"></path></g><g transform="translate(826 378)"><path d="M41.9 -42.9C51.9 -31.9 55.9 -16 55.3 -0.6C54.7 14.8 49.6 29.6 39.6 39.9C29.6 50.1 14.8 55.7 0 55.7C-14.8 55.7 -29.6 50.1 -39.6 39.8C-49.5 29.6 -54.6 14.8 -54.9 -0.3C-55.1 -15.3 -50.6 -30.7 -40.6 -41.7C-30.7 -52.7 -15.3 -59.3 0.3 -59.6C16 -59.9 31.9 -53.9 41.9 -42.9Z" stroke="#60a9f1" fill="none" stroke-width="20"></path></g><g transform="translate(48 181)"><path d="M48 -47.3C60.9 -35.1 69.2 -17.5 69.4 0.2C69.6 17.9 61.7 35.9 48.8 48.4C35.9 61 17.9 68.1 0 68.1C-17.9 68.1 -35.7 60.8 -48.4 48.3C-61 35.7 -68.5 17.9 -68.4 0.1C-68.3 -17.7 -60.7 -35.4 -48 -47.6C-35.4 -59.9 -17.7 -66.6 -0.1 -66.6C17.5 -66.5 35.1 -59.5 48 -47.3Z" stroke="#60a9f1" fill="none" stroke-width="20"></path></g><g transform="translate(378 102)"><path d="M41.1 -41.2C51.2 -31.1 55.7 -15.5 54.9 -0.7C54.2 14 48.2 28.1 38.1 38.8C28.1 49.5 14 56.8 0 56.8C-14.1 56.8 -28.2 49.5 -39.2 38.9C-50.2 28.2 -58.1 14.1 -58.6 -0.5C-59.2 -15.1 -52.3 -30.3 -41.3 -40.4C-30.3 -50.6 -15.1 -55.8 0.2 -56C15.5 -56.2 31.1 -51.4 41.1 -41.2Z" stroke="#60a9f1" fill="none" stroke-width="20"></path></g><g transform="translate(77 524)"><path d="M33 -32.5C41.4 -24.6 45.9 -12.3 45.4 -0.5C44.9 11.3 39.4 22.6 31 31.2C22.6 39.8 11.3 45.8 0.1 45.7C-11.1 45.5 -22.1 39.4 -30.2 30.7C-38.3 22.1 -43.4 11.1 -43.5 -0.1C-43.7 -11.4 -38.9 -22.7 -30.8 -30.5C-22.7 -38.4 -11.4 -42.7 0.5 -43.2C12.3 -43.6 24.6 -40.3 33 -32.5Z" stroke="#60a9f1" fill="none" stroke-width="20"></path></g><g transform="translate(638 321)"><path d="M45.3 -44C58.2 -32.5 67.6 -16.2 68.1 0.6C68.7 17.4 60.4 34.7 47.5 47.3C34.7 59.9 17.4 67.7 -0.2 67.9C-17.8 68.2 -35.6 60.8 -47.5 48.2C-59.4 35.6 -65.4 17.8 -65.5 -0.1C-65.6 -18 -59.8 -36 -47.9 -47.6C-36 -59.1 -18 -64.2 -0.9 -63.3C16.2 -62.4 32.5 -55.6 45.3 -44Z" stroke="#60a9f1" fill="none" stroke-width="20"></path></g><g transform="translate(133 33)"><path d="M43.3 -42.3C55 -31.7 62.4 -15.9 61.8 -0.6C61.1 14.6 52.5 29.3 40.9 40C29.3 50.7 14.6 57.5 -0.1 57.6C-14.8 57.6 -29.5 51 -41.1 40.2C-52.7 29.5 -61.1 14.8 -61.2 -0.1C-61.3 -15 -53.1 -29.9 -41.5 -40.6C-29.9 -51.2 -15 -57.5 0.4 -58C15.9 -58.4 31.7 -53 43.3 -42.3Z" stroke="#60a9f1" fill="none" stroke-width="20"></path></g><g transform="translate(694 79)"><path d="M39 -39.4C49.1 -28.9 54.8 -14.5 55.4 0.6C56 15.7 51.5 31.3 41.4 42.5C31.3 53.7 15.7 60.5 0.4 60.1C-14.9 59.7 -29.7 52.1 -40.1 40.9C-50.5 29.7 -56.4 14.9 -56.5 -0.1C-56.6 -15 -50.9 -30.1 -40.5 -40.6C-30.1 -51.1 -15 -57 -0.3 -56.8C14.5 -56.5 28.9 -49.9 39 -39.4Z" stroke="#60a9f1" fill="none" stroke-width="20"></path></g><g transform="translate(170 349)"><path d="M39.5 -40C50.1 -28.9 56.8 -14.4 56.6 -0.2C56.4 14 49.3 28.1 38.7 38.1C28.1 48 14 53.9 -0.7 54.7C-15.5 55.4 -31.1 51 -41.3 41.1C-51.6 31.1 -56.5 15.5 -55.9 0.6C-55.3 -14.4 -49.2 -28.8 -39 -39.9C-28.8 -51 -14.4 -58.8 0 -58.8C14.4 -58.9 28.9 -51.1 39.5 -40Z" stroke="#60a9f1" fill="none" stroke-width="20"></path></g><g transform="translate(389 531)"><path d="M26.5 -25.9C34 -19.1 39.4 -9.5 39.4 0.1C39.5 9.6 34.2 19.3 26.7 26.6C19.3 33.9 9.6 38.9 0 38.9C-9.6 38.8 -19.1 33.8 -25.7 26.4C-32.3 19.1 -35.9 9.6 -36.2 -0.3C-36.5 -10.1 -33.4 -20.2 -26.8 -27C-20.2 -33.8 -10.1 -37.4 -0.3 -37.1C9.5 -36.8 19.1 -32.7 26.5 -25.9Z" stroke="#60a9f1" fill="none" stroke-width="20"></path></g><g transform="translate(670 514)"><path d="M25.7 -25.3C32.5 -19 36.6 -9.5 36.3 -0.3C36 8.9 31.3 17.8 24.5 24.5C17.8 31.2 8.9 35.7 -0.3 36C-9.4 36.2 -18.8 32.2 -25.3 25.5C-31.9 18.8 -35.5 9.4 -35.3 0.2C-35.2 -9.1 -31.2 -18.1 -24.7 -24.5C-18.1 -30.8 -9.1 -34.4 0.2 -34.6C9.5 -34.8 19 -31.6 25.7 -25.3Z" stroke="#60a9f1" fill="none" stroke-width="20"></path></g><g transform="translate(927 83)"><path d="M40.6 -40.7C51.1 -30 57.2 -15 56.8 -0.4C56.4 14.2 49.5 28.4 39 38.6C28.4 48.8 14.2 55.1 -0.1 55.1C-14.3 55.2 -28.7 49.1 -39.6 38.9C-50.6 28.7 -58.1 14.3 -58.2 -0.1C-58.3 -14.5 -50.8 -28.9 -39.9 -39.5C-28.9 -50.2 -14.5 -57 0.3 -57.2C15 -57.5 30 -51.3 40.6 -40.7Z" stroke="#60a9f1" fill="none" stroke-width="20"></path></g><g transform="translate(956 498)"><path d="M47.8 -48.6C59.7 -35.9 65.5 -18 65.1 -0.4C64.8 17.3 58.3 34.5 46.4 46.3C34.5 58.1 17.3 64.5 -0.6 65.1C-18.4 65.7 -36.7 60.4 -48.8 48.6C-60.8 36.7 -66.6 18.4 -65.5 1.1C-64.4 -16.2 -56.5 -32.4 -44.5 -45.1C-32.4 -57.8 -16.2 -67.1 0.9 -67.9C18 -68.8 35.9 -61.3 47.8 -48.6Z" stroke="#60a9f1" fill="none" stroke-width="20"></path></g><g transform="translate(539 170)"><path d="M43.4 -42.3C54.7 -32.1 61.3 -16 60.7 -0.6C60.1 14.9 52.4 29.8 41.1 40.6C29.8 51.4 14.9 58.2 -0.2 58.4C-15.4 58.7 -30.7 52.4 -42 41.5C-53.2 30.7 -60.3 15.4 -60.6 -0.2C-60.8 -15.8 -54.2 -31.7 -42.9 -41.9C-31.7 -52.2 -15.8 -56.9 0.1 -57C16 -57 32.1 -52.6 43.4 -42.3Z" stroke="#60a9f1" fill="none" stroke-width="20"></path></g></g></svg>